<svg width="390" height="212" viewBox="0 0 390 212" fill="none" xmlns="http://www.w3.org/2000/svg">
<rect x="159.8" y="44.7998" width="70.4" height="70.4" rx="32" fill="#0F6DF3"/>
<path d="M193.075 86.325L202.769 76.6313L200.844 74.7063L193.075 82.475L189.156 78.5563L187.231 80.4813L193.075 86.325ZM195 93.75C193.098 93.75 191.31 93.3891 189.638 92.6672C187.965 91.9453 186.509 90.9656 185.272 89.7281C184.034 88.4906 183.055 87.0354 182.333 85.3625C181.611 83.6896 181.25 81.9021 181.25 80C181.25 78.0979 181.611 76.3104 182.333 74.6375C183.055 72.9646 184.034 71.5094 185.272 70.2719C186.509 69.0344 187.965 68.0547 189.638 67.3328C191.31 66.6109 193.098 66.25 195 66.25C196.902 66.25 198.69 66.6109 200.363 67.3328C202.035 68.0547 203.491 69.0344 204.728 70.2719C205.966 71.5094 206.945 72.9646 207.667 74.6375C208.389 76.3104 208.75 78.0979 208.75 80C208.75 81.9021 208.389 83.6896 207.667 85.3625C206.945 87.0354 205.966 88.4906 204.728 89.7281C203.491 90.9656 202.035 91.9453 200.363 92.6672C198.69 93.3891 196.902 93.75 195 93.75Z" fill="white"/>
<path d="M165.936 131.22H168.596V149.8H165.936V131.22ZM162.696 137.7H166.556V139.84H162.696V137.7ZM157.316 134.16H159.436V135.82C159.436 136.94 159.33 138.04 159.116 139.12C158.903 140.2 158.583 141.207 158.156 142.14C157.743 143.073 157.216 143.9 156.576 144.62C155.936 145.34 155.19 145.92 154.336 146.36L152.776 144.26C153.55 143.9 154.223 143.42 154.796 142.82C155.37 142.207 155.843 141.527 156.216 140.78C156.59 140.02 156.863 139.22 157.036 138.38C157.223 137.527 157.316 136.673 157.316 135.82V134.16ZM157.936 134.16H160.016V135.82C160.016 136.633 160.103 137.447 160.276 138.26C160.463 139.06 160.743 139.827 161.116 140.56C161.503 141.28 161.983 141.927 162.556 142.5C163.13 143.073 163.803 143.54 164.576 143.9L163.036 145.98C162.156 145.567 161.396 145.013 160.756 144.32C160.116 143.627 159.59 142.833 159.176 141.94C158.763 141.033 158.45 140.06 158.236 139.02C158.036 137.98 157.936 136.913 157.936 135.82V134.16ZM153.516 133.02H163.816V135.16H153.516V133.02ZM175.575 133.32H177.755V134.48C177.755 135.653 177.561 136.767 177.175 137.82C176.801 138.873 176.228 139.8 175.455 140.6C174.681 141.387 173.701 141.973 172.515 142.36L171.195 140.26C172.208 139.927 173.035 139.46 173.675 138.86C174.328 138.247 174.808 137.56 175.115 136.8C175.421 136.027 175.575 135.253 175.575 134.48V133.32ZM176.115 133.32H178.255V134.48C178.255 135.2 178.401 135.9 178.695 136.58C178.988 137.247 179.441 137.847 180.055 138.38C180.681 138.913 181.495 139.333 182.495 139.64L181.215 141.72C180.041 141.373 179.075 140.84 178.315 140.12C177.568 139.387 177.015 138.54 176.655 137.58C176.295 136.607 176.115 135.573 176.115 134.48V133.32ZM171.875 132.48H181.895V134.6H171.875V132.48ZM183.355 131.26H186.015V142.24H183.355V131.26ZM185.295 135.5H188.475V137.68H185.295V135.5ZM179.975 142.56C181.268 142.56 182.381 142.707 183.315 143C184.248 143.28 184.968 143.687 185.475 144.22C185.981 144.753 186.235 145.4 186.235 146.16C186.235 146.92 185.981 147.567 185.475 148.1C184.968 148.647 184.248 149.06 183.315 149.34C182.381 149.633 181.268 149.78 179.975 149.78C178.695 149.78 177.581 149.633 176.635 149.34C175.701 149.06 174.975 148.647 174.455 148.1C173.948 147.567 173.695 146.92 173.695 146.16C173.695 145.4 173.948 144.753 174.455 144.22C174.975 143.687 175.701 143.28 176.635 143C177.581 142.707 178.695 142.56 179.975 142.56ZM179.975 144.64C179.188 144.64 178.528 144.693 177.995 144.8C177.461 144.907 177.055 145.073 176.775 145.3C176.495 145.527 176.355 145.813 176.355 146.16C176.355 146.52 176.495 146.813 176.775 147.04C177.055 147.267 177.461 147.44 177.995 147.56C178.528 147.667 179.188 147.72 179.975 147.72C180.761 147.72 181.421 147.667 181.955 147.56C182.501 147.44 182.908 147.267 183.175 147.04C183.455 146.813 183.595 146.52 183.595 146.16C183.595 145.813 183.455 145.527 183.175 145.3C182.908 145.073 182.501 144.907 181.955 144.8C181.421 144.693 180.761 144.64 179.975 144.64ZM198.584 138.74H201.244V141.56H198.584V138.74ZM199.904 132C200.798 132 201.591 132.16 202.284 132.48C202.978 132.787 203.524 133.227 203.924 133.8C204.324 134.36 204.524 135.013 204.524 135.76C204.524 136.493 204.324 137.147 203.924 137.72C203.524 138.28 202.978 138.72 202.284 139.04C201.591 139.36 200.798 139.52 199.904 139.52C199.011 139.52 198.211 139.36 197.504 139.04C196.811 138.72 196.264 138.28 195.864 137.72C195.464 137.147 195.264 136.493 195.264 135.76C195.264 135.013 195.464 134.36 195.864 133.8C196.264 133.227 196.811 132.787 197.504 132.48C198.211 132.16 199.011 132 199.904 132ZM199.904 133.98C199.491 133.98 199.118 134.053 198.784 134.2C198.464 134.333 198.211 134.533 198.024 134.8C197.838 135.067 197.744 135.387 197.744 135.76C197.744 136.133 197.838 136.453 198.024 136.72C198.211 136.973 198.464 137.173 198.784 137.32C199.118 137.453 199.491 137.52 199.904 137.52C200.331 137.52 200.704 137.453 201.024 137.32C201.344 137.173 201.591 136.973 201.764 136.72C201.951 136.453 202.044 136.133 202.044 135.76C202.044 135.387 201.951 135.067 201.764 134.8C201.591 134.533 201.344 134.333 201.024 134.2C200.704 134.053 200.331 133.98 199.904 133.98ZM206.404 131.26H209.064V145.38H206.404V131.26ZM208.144 137.08H211.404V139.24H208.144V137.08ZM196.724 147.32H209.704V149.44H196.724V147.32ZM196.724 144.18H199.384V148.24H196.724V144.18ZM194.624 142.98L194.304 140.88C195.358 140.88 196.511 140.873 197.764 140.86C199.031 140.833 200.318 140.78 201.624 140.7C202.944 140.62 204.211 140.493 205.424 140.32L205.604 142.22C204.364 142.447 203.091 142.62 201.784 142.74C200.478 142.847 199.211 142.913 197.984 142.94C196.758 142.967 195.638 142.98 194.624 142.98ZM217.023 142.04H219.643V146.42H217.023V142.04ZM222.883 142.04H225.483V146.4H222.883V142.04ZM212.783 145.58H229.563V147.74H212.783V145.58ZM214.683 132.44H227.663V138.58H217.343V141.72H214.703V136.5H225.023V134.56H214.683V132.44ZM214.703 140.62H228.083V142.74H214.703V140.62ZM233.101 142.96L232.681 135.58L232.581 132.78H235.541L235.441 135.58L235.021 142.96H233.101ZM234.061 148.28C233.528 148.28 233.088 148.093 232.741 147.72C232.408 147.347 232.241 146.893 232.241 146.36C232.241 145.8 232.408 145.34 232.741 144.98C233.088 144.62 233.528 144.44 234.061 144.44C234.595 144.44 235.028 144.62 235.361 144.98C235.708 145.34 235.881 145.8 235.881 146.36C235.881 146.893 235.708 147.347 235.361 147.72C235.028 148.093 234.595 148.28 234.061 148.28Z" fill="#0F6DF3"/>
<path d="M74.2803 164.848H75.3683V167.184C75.3683 167.952 75.2616 168.709 75.0483 169.456C74.8349 170.192 74.5363 170.891 74.1523 171.552C73.7789 172.203 73.3416 172.779 72.8403 173.28C72.3389 173.781 71.8003 174.176 71.2243 174.464L70.4563 173.408C70.9789 173.152 71.4696 172.805 71.9283 172.368C72.3976 171.931 72.8083 171.429 73.1603 170.864C73.5123 170.299 73.7843 169.701 73.9763 169.072C74.1789 168.443 74.2803 167.813 74.2803 167.184V164.848ZM74.5523 164.848H75.6243V167.184C75.6243 167.792 75.7203 168.4 75.9123 169.008C76.1149 169.605 76.3923 170.171 76.7443 170.704C77.1069 171.227 77.5176 171.691 77.9763 172.096C78.4456 172.501 78.9469 172.821 79.4803 173.056L78.7443 174.112C78.1576 173.835 77.6083 173.461 77.0963 172.992C76.5843 172.523 76.1363 171.984 75.7523 171.376C75.3789 170.757 75.0856 170.096 74.8723 169.392C74.6589 168.677 74.5523 167.941 74.5523 167.184V164.848ZM70.9203 164.256H79.0003V165.36H70.9203V164.256ZM80.9683 162.768H82.2963V177.248H80.9683V162.768ZM91.047 169.984H92.359V172.16H91.047V169.984ZM85.191 169.2H98.231V170.208H85.191V169.2ZM91.047 162.688H92.359V164.432H91.047V162.688ZM90.983 164.56H92.151V164.784C92.151 165.36 91.9963 165.867 91.687 166.304C91.3777 166.741 90.951 167.115 90.407 167.424C89.863 167.733 89.2337 167.984 88.519 168.176C87.815 168.357 87.063 168.48 86.263 168.544L85.863 167.536C86.5777 167.493 87.2443 167.403 87.863 167.264C88.4817 167.115 89.0257 166.923 89.495 166.688C89.9643 166.453 90.327 166.176 90.583 165.856C90.8497 165.536 90.983 165.179 90.983 164.784V164.56ZM91.271 164.56H92.423V164.784C92.423 165.179 92.5563 165.536 92.823 165.856C93.0897 166.176 93.4577 166.453 93.927 166.688C94.3963 166.923 94.935 167.115 95.543 167.264C96.1617 167.403 96.8283 167.493 97.543 167.536L97.143 168.544C96.343 168.48 95.5857 168.357 94.871 168.176C94.167 167.984 93.543 167.733 92.999 167.424C92.4657 167.115 92.0443 166.741 91.735 166.304C91.4257 165.867 91.271 165.36 91.271 164.784V164.56ZM86.519 164.032H96.919V165.056H86.519V164.032ZM86.759 171.536H96.567V174.704H88.087V176.448H86.791V173.76H95.271V172.528H86.759V171.536ZM86.791 176.064H96.999V177.088H86.791V176.064ZM111.2 166.528H114.448V167.632H111.2V166.528ZM114.048 162.768H115.376V171.392H114.048V162.768ZM110.608 171.84C111.611 171.84 112.469 171.947 113.184 172.16C113.909 172.373 114.464 172.683 114.848 173.088C115.232 173.483 115.424 173.968 115.424 174.544C115.424 175.397 114.992 176.059 114.128 176.528C113.275 176.997 112.101 177.232 110.608 177.232C109.115 177.232 107.936 176.997 107.072 176.528C106.219 176.059 105.792 175.397 105.792 174.544C105.792 173.968 105.984 173.483 106.368 173.088C106.763 172.683 107.317 172.373 108.032 172.16C108.757 171.947 109.616 171.84 110.608 171.84ZM110.608 172.88C109.883 172.88 109.259 172.944 108.736 173.072C108.213 173.2 107.808 173.387 107.52 173.632C107.243 173.877 107.104 174.181 107.104 174.544C107.104 174.885 107.243 175.179 107.52 175.424C107.808 175.669 108.213 175.861 108.736 176C109.259 176.128 109.883 176.192 110.608 176.192C111.344 176.192 111.968 176.128 112.48 176C113.003 175.861 113.403 175.669 113.68 175.424C113.968 175.179 114.112 174.885 114.112 174.544C114.112 174.181 113.968 173.877 113.68 173.632C113.403 173.387 113.003 173.2 112.48 173.072C111.968 172.944 111.344 172.88 110.608 172.88ZM107.152 164.24H108.24V165.408C108.24 166.293 108.069 167.125 107.728 167.904C107.397 168.672 106.928 169.349 106.32 169.936C105.712 170.512 105.008 170.955 104.208 171.264L103.52 170.208C104.064 170.016 104.555 169.755 104.992 169.424C105.44 169.093 105.824 168.715 106.144 168.288C106.475 167.861 106.725 167.403 106.896 166.912C107.067 166.421 107.152 165.92 107.152 165.408V164.24ZM107.408 164.24H108.496V165.392C108.496 166.011 108.64 166.613 108.928 167.2C109.216 167.787 109.627 168.304 110.16 168.752C110.693 169.2 111.307 169.552 112 169.808L111.328 170.864C110.539 170.576 109.851 170.16 109.264 169.616C108.677 169.061 108.219 168.421 107.888 167.696C107.568 166.971 107.408 166.203 107.408 165.392V164.24ZM103.936 163.824H111.664V164.912H103.936V163.824ZM118.191 174.304H131.311V175.408H118.191V174.304ZM124.063 170.832H125.375V174.624H124.063V170.832ZM119.727 163.792H121.055V166.368H128.415V163.792H129.727V171.2H119.727V163.792ZM121.055 167.456V170.112H128.415V167.456H121.055ZM142.701 162.768H144.029V177.232H142.701V162.768ZM143.677 168.64H146.333V169.744H143.677V168.64ZM139.005 164.32H140.301C140.301 165.696 140.077 167.013 139.629 168.272C139.181 169.52 138.477 170.677 137.517 171.744C136.557 172.8 135.293 173.717 133.725 174.496L132.989 173.472C134.333 172.8 135.448 172.016 136.333 171.12C137.229 170.213 137.896 169.211 138.333 168.112C138.781 167.003 139.005 165.808 139.005 164.528V164.32ZM133.661 164.32H139.677V165.424H133.661V164.32ZM161.11 162.768H162.438V173.424H161.11V162.768ZM162.022 167.168H164.566V168.272H162.022V167.168ZM153.43 175.84H163.078V176.928H153.43V175.84ZM153.43 172.336H154.742V176.272H153.43V172.336ZM155.238 163.792C155.964 163.792 156.609 163.947 157.174 164.256C157.74 164.555 158.188 164.971 158.518 165.504C158.849 166.037 159.014 166.656 159.014 167.36C159.014 168.043 158.849 168.656 158.518 169.2C158.188 169.744 157.74 170.171 157.174 170.48C156.609 170.779 155.964 170.928 155.238 170.928C154.524 170.928 153.878 170.779 153.302 170.48C152.737 170.171 152.289 169.744 151.958 169.2C151.628 168.656 151.462 168.043 151.462 167.36C151.462 166.656 151.628 166.037 151.958 165.504C152.289 164.971 152.737 164.555 153.302 164.256C153.878 163.947 154.524 163.792 155.238 163.792ZM155.238 164.944C154.769 164.944 154.348 165.045 153.974 165.248C153.601 165.451 153.302 165.733 153.078 166.096C152.865 166.459 152.758 166.88 152.758 167.36C152.758 167.829 152.865 168.245 153.078 168.608C153.302 168.971 153.601 169.253 153.974 169.456C154.348 169.659 154.769 169.76 155.238 169.76C155.708 169.76 156.129 169.659 156.502 169.456C156.886 169.253 157.185 168.971 157.398 168.608C157.622 168.245 157.734 167.829 157.734 167.36C157.734 166.88 157.622 166.459 157.398 166.096C157.185 165.733 156.886 165.451 156.502 165.248C156.129 165.045 155.708 164.944 155.238 164.944ZM173.589 166.768H177.253V167.856H173.589V166.768ZM176.501 162.784H177.829V173.392H176.501V162.784ZM168.597 175.84H178.229V176.928H168.597V175.84ZM168.597 172.448H169.909V176.384H168.597V172.448ZM169.605 164.576H170.693V165.744C170.693 166.619 170.522 167.445 170.181 168.224C169.85 168.992 169.381 169.664 168.773 170.24C168.165 170.805 167.461 171.243 166.661 171.552L165.973 170.48C166.506 170.288 166.992 170.032 167.429 169.712C167.877 169.392 168.266 169.024 168.597 168.608C168.928 168.192 169.178 167.739 169.349 167.248C169.52 166.757 169.605 166.256 169.605 165.744V164.576ZM169.861 164.576H170.949V165.744C170.949 166.363 171.093 166.965 171.381 167.552C171.669 168.139 172.08 168.661 172.613 169.12C173.146 169.568 173.76 169.915 174.453 170.16L173.781 171.216C172.992 170.928 172.304 170.512 171.717 169.968C171.13 169.413 170.672 168.773 170.341 168.048C170.021 167.323 169.861 166.555 169.861 165.744V164.576ZM166.389 163.952H174.117V165.04H166.389V163.952ZM190.452 162.768H191.764V177.248H190.452V162.768ZM191.46 168.72H194.132V169.84H191.46V168.72ZM180.564 165.088H189.092V166.176H180.564V165.088ZM184.9 167.36C185.582 167.36 186.185 167.504 186.708 167.792C187.241 168.08 187.657 168.475 187.956 168.976C188.265 169.467 188.42 170.037 188.42 170.688C188.42 171.339 188.265 171.915 187.956 172.416C187.657 172.917 187.241 173.312 186.708 173.6C186.185 173.877 185.582 174.016 184.9 174.016C184.217 174.016 183.609 173.877 183.076 173.6C182.553 173.312 182.137 172.917 181.828 172.416C181.518 171.915 181.364 171.339 181.364 170.688C181.364 170.037 181.518 169.467 181.828 168.976C182.137 168.475 182.553 168.08 183.076 167.792C183.609 167.504 184.217 167.36 184.9 167.36ZM184.9 168.464C184.462 168.464 184.073 168.56 183.732 168.752C183.39 168.944 183.118 169.205 182.916 169.536C182.724 169.867 182.628 170.251 182.628 170.688C182.628 171.125 182.724 171.515 182.916 171.856C183.118 172.187 183.39 172.448 183.732 172.64C184.073 172.821 184.462 172.912 184.9 172.912C185.326 172.912 185.71 172.821 186.052 172.64C186.393 172.448 186.66 172.187 186.852 171.856C187.054 171.515 187.156 171.125 187.156 170.688C187.156 170.251 187.054 169.867 186.852 169.536C186.66 169.205 186.393 168.944 186.052 168.752C185.71 168.56 185.326 168.464 184.9 168.464ZM184.212 162.944H185.54V165.568H184.212V162.944ZM206.387 162.768H207.667V177.248H206.387V162.768ZM200.099 168.688H203.747V169.76H200.099V168.688ZM203.378 163.152H204.627V176.512H203.378V163.152ZM200.275 164.608H201.555C201.555 165.867 201.373 167.077 201.011 168.24C200.659 169.392 200.083 170.469 199.283 171.472C198.483 172.464 197.432 173.349 196.131 174.128L195.363 173.168C196.493 172.485 197.421 171.717 198.147 170.864C198.872 170 199.405 169.067 199.747 168.064C200.099 167.051 200.275 165.979 200.275 164.848V164.608ZM195.987 164.608H200.771V165.696H195.987V164.608ZM224.203 162.768H225.531V177.248H224.203V162.768ZM219.963 164.336H221.275C221.275 165.381 221.147 166.389 220.891 167.36C220.646 168.331 220.257 169.253 219.723 170.128C219.19 170.992 218.497 171.797 217.643 172.544C216.79 173.291 215.755 173.957 214.539 174.544L213.835 173.472C215.233 172.8 216.385 172.016 217.291 171.12C218.198 170.224 218.87 169.227 219.307 168.128C219.745 167.019 219.963 165.824 219.963 164.544V164.336ZM214.507 164.336H220.523V165.408H214.507V164.336ZM228.362 170.736H241.482V171.824H228.362V170.736ZM230.026 163.136H239.802V166.656H231.37V168.592H230.058V165.664H238.49V164.192H230.026V163.136ZM230.058 168.16H240.106V169.216H230.058V168.16ZM234.266 168.704H235.578V171.264H234.266V168.704ZM229.834 172.928H239.882V177.104H238.554V174H229.834V172.928ZM244.249 169.008H251.641V170.096H244.249V169.008ZM247.209 169.872H248.537V173.2H247.209V169.872ZM244.249 164.144H251.577V165.216H245.561V169.392H244.249V164.144ZM253.561 162.768H254.889V177.264H253.561V162.768ZM243.353 174.128L243.177 173.008C244.126 173.008 245.134 173.003 246.201 172.992C247.268 172.971 248.35 172.933 249.449 172.88C250.548 172.816 251.604 172.725 252.617 172.608L252.729 173.584C251.673 173.744 250.596 173.867 249.497 173.952C248.409 174.027 247.342 174.075 246.297 174.096C245.262 174.117 244.281 174.128 243.353 174.128ZM261.512 171.584H262.552V172.432C262.552 173.061 262.424 173.685 262.168 174.304C261.912 174.912 261.538 175.456 261.048 175.936C260.568 176.416 259.976 176.789 259.272 177.056L258.616 176.064C259.224 175.84 259.741 175.536 260.168 175.152C260.605 174.757 260.936 174.325 261.16 173.856C261.394 173.376 261.512 172.901 261.512 172.432V171.584ZM261.8 171.584H262.792V172.432C262.792 172.923 262.888 173.413 263.08 173.904C263.272 174.384 263.56 174.827 263.944 175.232C264.328 175.627 264.813 175.947 265.4 176.192L264.824 177.184C264.13 176.907 263.56 176.517 263.112 176.016C262.664 175.515 262.333 174.955 262.12 174.336C261.906 173.707 261.8 173.072 261.8 172.432V171.584ZM266.856 171.584H267.848V172.432C267.848 172.997 267.741 173.595 267.528 174.224C267.314 174.843 266.984 175.419 266.536 175.952C266.088 176.485 265.517 176.896 264.824 177.184L264.264 176.192C264.84 175.915 265.32 175.563 265.704 175.136C266.088 174.709 266.376 174.256 266.568 173.776C266.76 173.296 266.856 172.848 266.856 172.432V171.584ZM267.128 171.584H268.152V172.432C268.152 172.933 268.264 173.424 268.488 173.904C268.722 174.384 269.053 174.811 269.48 175.184C269.917 175.557 270.445 175.851 271.064 176.064L270.392 177.056C269.688 176.8 269.09 176.437 268.6 175.968C268.12 175.499 267.752 174.96 267.496 174.352C267.25 173.744 267.128 173.104 267.128 172.432V171.584ZM264.936 166.4H268.76V167.488H264.936V166.4ZM261.768 163.584C262.472 163.584 263.101 163.728 263.656 164.016C264.221 164.304 264.664 164.704 264.984 165.216C265.304 165.728 265.464 166.315 265.464 166.976C265.464 167.648 265.304 168.24 264.984 168.752C264.664 169.253 264.221 169.648 263.656 169.936C263.101 170.224 262.472 170.368 261.768 170.368C261.053 170.368 260.413 170.224 259.848 169.936C259.293 169.648 258.856 169.253 258.536 168.752C258.216 168.24 258.056 167.648 258.056 166.976C258.056 166.315 258.216 165.728 258.536 165.216C258.856 164.704 259.293 164.304 259.848 164.016C260.413 163.728 261.053 163.584 261.768 163.584ZM261.768 164.704C261.298 164.704 260.877 164.8 260.504 164.992C260.141 165.184 259.853 165.456 259.64 165.808C259.426 166.149 259.32 166.539 259.32 166.976C259.32 167.424 259.426 167.819 259.64 168.16C259.853 168.501 260.141 168.773 260.504 168.976C260.877 169.168 261.298 169.264 261.768 169.264C262.226 169.264 262.637 169.168 263 168.976C263.373 168.773 263.666 168.501 263.88 168.16C264.093 167.819 264.2 167.424 264.2 166.976C264.2 166.539 264.093 166.149 263.88 165.808C263.666 165.456 263.373 165.184 263 164.992C262.637 164.8 262.226 164.704 261.768 164.704ZM268.392 162.768H269.72V171.024H268.392V162.768ZM274.182 171.456H275.494V173.12H282.582V171.456H283.894V177.056H274.182V171.456ZM275.494 174.16V175.984H282.582V174.16H275.494ZM272.534 169.36H285.606V170.448H272.534V169.36ZM278.39 162.928H279.542V163.584C279.542 164.085 279.436 164.56 279.222 165.008C279.009 165.445 278.716 165.851 278.342 166.224C277.98 166.587 277.553 166.912 277.062 167.2C276.582 167.488 276.06 167.728 275.494 167.92C274.94 168.112 274.364 168.256 273.766 168.352L273.27 167.296C273.793 167.221 274.3 167.104 274.79 166.944C275.292 166.784 275.761 166.592 276.198 166.368C276.636 166.133 277.02 165.872 277.35 165.584C277.681 165.285 277.937 164.971 278.118 164.64C278.3 164.299 278.39 163.947 278.39 163.584V162.928ZM278.614 162.928H279.75V163.584C279.75 163.936 279.841 164.283 280.022 164.624C280.214 164.955 280.476 165.269 280.806 165.568C281.137 165.856 281.516 166.117 281.942 166.352C282.38 166.587 282.844 166.789 283.334 166.96C283.836 167.12 284.342 167.232 284.854 167.296L284.374 168.352C283.777 168.256 283.196 168.112 282.63 167.92C282.076 167.728 281.553 167.488 281.062 167.2C280.582 166.901 280.156 166.565 279.782 166.192C279.42 165.819 279.132 165.413 278.918 164.976C278.716 164.539 278.614 164.075 278.614 163.584V162.928ZM297.781 162.768H299.093V177.248H297.781V162.768ZM288.165 164.192H289.477V173.152H288.165V164.192ZM288.165 172.368H289.349C290.458 172.368 291.584 172.32 292.725 172.224C293.877 172.117 295.061 171.941 296.277 171.696L296.453 172.816C295.194 173.083 293.984 173.269 292.821 173.376C291.658 173.472 290.501 173.52 289.349 173.52H288.165V172.368ZM311.764 162.768H313.092V177.264H311.764V162.768ZM312.788 168.48H315.46V169.584H312.788V168.48ZM302.596 172.528H303.732C304.617 172.528 305.428 172.517 306.164 172.496C306.911 172.464 307.625 172.411 308.308 172.336C309.001 172.261 309.705 172.16 310.42 172.032L310.58 173.168C309.833 173.296 309.108 173.397 308.404 173.472C307.711 173.547 306.985 173.595 306.228 173.616C305.471 173.637 304.639 173.648 303.732 173.648H302.596V172.528ZM302.596 164.176H309.3V165.264H303.908V173.04H302.596V164.176ZM318.115 176.208C317.827 176.208 317.576 176.107 317.363 175.904C317.16 175.691 317.059 175.424 317.059 175.104C317.059 174.763 317.16 174.491 317.363 174.288C317.576 174.085 317.827 173.984 318.115 173.984C318.403 173.984 318.648 174.085 318.851 174.288C319.064 174.491 319.171 174.763 319.171 175.104C319.171 175.424 319.064 175.691 318.851 175.904C318.648 176.107 318.403 176.208 318.115 176.208Z" fill="#8A8A8A"/>
</svg>
