<svg width="79" height="43" viewBox="0 0 79 43" fill="none" xmlns="http://www.w3.org/2000/svg">
<path d="M26.9499 4.76381C26.9499 3.73462 27.2734 2.94067 27.9203 2.38197C28.5966 1.82327 29.4494 1.54392 30.4785 1.54392C31.5077 1.54392 32.3458 1.82327 32.9927 2.38197C33.669 2.94067 34.0072 3.73462 34.0072 4.76381V19.9811C34.0072 21.0103 33.669 21.8042 32.9927 22.3629C32.3458 22.9216 31.5077 23.201 30.4785 23.201C29.4494 23.201 28.5966 22.9216 27.9203 22.3629C27.2734 21.8042 26.9499 21.0103 26.9499 19.9811V15.041H20.9512V17.7316C20.9512 20.5839 19.4956 22.0101 16.5845 22.0101H4.36654C1.45541 22.0101 -0.000159662 20.5839 -0.000159662 17.7316V6.74867C-0.000159662 3.89635 1.45541 2.47019 4.36654 2.47019H16.5845C19.4956 2.47019 20.9512 3.89635 20.9512 6.74867V9.17462H26.9499V4.76381ZM9.43898 42.2116C7.99811 42.2116 6.96892 41.9175 6.35141 41.3294C5.73389 40.7413 5.42514 39.7268 5.42514 38.286V29.2879C5.42514 27.8471 5.73389 26.8473 6.35141 26.2886C6.96892 25.7005 7.99811 25.4064 9.43898 25.4064H30.0375C31.4783 25.4064 32.4928 25.7005 33.0809 26.2886C33.6984 26.8473 34.0072 27.8471 34.0072 29.2879V38.286C34.0072 39.7268 33.6984 40.7413 33.0809 41.3294C32.4928 41.9175 31.4783 42.2116 30.0375 42.2116H9.43898ZM12.9235 30.6994C12.6295 30.6994 12.4824 30.8464 12.4824 31.1405V36.4775C12.4824 36.7716 12.6295 36.9186 12.9235 36.9186H26.5088C26.8029 36.9186 26.9499 36.7716 26.9499 36.4775V31.1405C26.9499 30.8464 26.8029 30.6994 26.5088 30.6994H12.9235ZM14.2909 8.55711C14.2909 8.14543 14.085 7.93959 13.6734 7.93959H7.41C6.99833 7.93959 6.79249 8.14543 6.79249 8.55711V15.9232C6.79249 16.3348 6.99833 16.5407 7.41 16.5407H13.6734C14.085 16.5407 14.2909 16.3348 14.2909 15.9232V8.55711ZM61.6613 5.33721C62.661 5.33721 63.4403 5.55775 63.999 5.99883C64.5871 6.41051 64.8811 7.11624 64.8811 8.11603C64.8811 9.11581 64.5871 9.83624 63.999 10.2773C63.4403 10.689 62.661 10.8948 61.6613 10.8948H56.9417V11.6888C56.9417 12.6298 57.1034 13.4384 57.4269 14.1147C57.7797 14.7911 58.2649 15.4086 58.8824 15.9673C59.5 16.4966 60.2204 16.9965 61.0437 17.4669C61.8965 17.9374 62.8081 18.4226 63.7784 18.9225C64.69 19.393 65.2781 20.0252 65.5428 20.8192C65.8368 21.6131 65.7486 22.3923 65.2781 23.1569C64.8076 23.9214 64.1754 24.3331 63.3815 24.3919C62.5875 24.4213 61.7495 24.2743 60.8673 23.9508C59.4853 23.4509 58.1326 22.804 56.8094 22.0101C55.5155 21.2161 54.4275 20.3928 53.5454 19.54C52.6632 20.5692 51.5605 21.5396 50.2373 22.4512C48.9434 23.3627 47.6055 24.1567 46.2234 24.833C45.3413 25.2447 44.5032 25.4211 43.7093 25.3623C42.9447 25.2741 42.3125 24.8477 41.8126 24.0832C41.3127 23.3186 41.2098 22.5394 41.5038 21.7454C41.7979 20.9515 42.4007 20.3046 43.3123 19.8047C44.2827 19.2754 45.1795 18.7314 46.0029 18.1727C46.8556 17.5846 47.5908 16.9818 48.2083 16.3642C48.8258 15.7173 49.2963 15.0116 49.6197 14.2471C49.9726 13.4825 50.149 12.6298 50.149 11.6888V10.8948H45.1648C44.165 10.8948 43.3711 10.689 42.783 10.2773C42.2243 9.83624 41.9449 9.11581 41.9449 8.11603C41.9449 7.11624 42.2243 6.41051 42.783 5.99883C43.3711 5.55775 44.165 5.33721 45.1648 5.33721H50.149V3.04359C50.149 2.04381 50.4578 1.29397 51.0753 0.794079C51.7222 0.264782 52.5456 0.000132816 53.5454 0.000132816C54.5451 0.000132816 55.3538 0.264782 55.9713 0.794079C56.6182 1.29397 56.9417 2.04381 56.9417 3.04359V5.33721H61.6613ZM62.0582 26.2445C63.1756 26.2445 64.0284 26.5238 64.6165 27.0825C65.234 27.6412 65.5428 28.4205 65.5428 29.4202V30.126C65.5428 30.9199 65.8809 31.6551 66.5573 32.3314C67.2336 32.9783 68.0716 33.5664 69.0714 34.0957C70.1006 34.625 71.2033 35.1102 72.3795 35.5513C73.5851 35.9629 74.7026 36.3305 75.7317 36.654C76.6433 36.948 77.2755 37.4479 77.6284 38.1536C78.0107 38.8888 78.0401 39.6827 77.7166 40.5355C77.3931 41.3882 76.8491 41.9175 76.0846 42.1234C75.3495 42.3292 74.5261 42.3145 73.6146 42.0793C71.468 41.55 69.3802 40.8148 67.3512 39.8739C65.3222 38.9623 63.5579 37.8008 62.0582 36.3893C60.5585 37.8008 58.7942 39.0064 56.7653 40.0062C54.7363 41.006 52.6485 41.7705 50.5019 42.2998C49.5903 42.5351 48.7523 42.5498 47.9877 42.3439C47.2526 42.1381 46.7233 41.6088 46.3998 40.756C46.0764 39.9033 46.0911 39.1093 46.444 38.3742C46.8262 37.6685 47.4731 37.1686 48.3847 36.8745C49.4139 36.5511 50.5166 36.1688 51.6928 35.7277C52.8984 35.2866 54.0011 34.7867 55.0009 34.228C56.0301 33.6399 56.8829 33.0077 57.5592 32.3314C58.2355 31.6551 58.5737 30.9199 58.5737 30.126V29.4202C58.5737 28.4205 58.8677 27.6412 59.4558 27.0825C60.0734 26.5238 60.9408 26.2445 62.0582 26.2445ZM69.292 4.76381C69.292 3.73462 69.6154 2.94067 70.2623 2.38197C70.9387 1.82327 71.7914 1.54392 72.8206 1.54392C73.8498 1.54392 74.6878 1.82327 75.3348 2.38197C76.0111 2.94067 76.3493 3.73462 76.3493 4.76381V24.6125C76.3493 25.6416 76.0111 26.4356 75.3348 26.9943C74.6878 27.553 73.8498 27.8323 72.8206 27.8323C71.7914 27.8323 70.9387 27.553 70.2623 26.9943C69.6154 26.4356 69.292 25.6416 69.292 24.6125V4.76381Z" fill="white"/>
</svg>
