<svg width="33" height="18" viewBox="0 0 33 18" fill="none" xmlns="http://www.w3.org/2000/svg">
<path d="M11.0441 1.95182C11.0441 1.53007 11.1767 1.20472 11.4418 0.975766C11.7189 0.746814 12.0684 0.632339 12.4901 0.632339C12.9119 0.632339 13.2553 0.746814 13.5204 0.975766C13.7975 1.20472 13.9361 1.53007 13.9361 1.95182V8.18774C13.9361 8.60949 13.7975 8.93484 13.5204 9.16379C13.2553 9.39275 12.9119 9.50722 12.4901 9.50722C12.0684 9.50722 11.7189 9.39275 11.4418 9.16379C11.1767 8.93484 11.0441 8.60949 11.0441 8.18774V6.16332H8.58589V7.26591C8.58589 8.43476 7.98941 9.01919 6.79645 9.01919H1.78965C0.596688 9.01919 0.00020869 8.43476 0.00020869 7.26591V2.7652C0.00020869 1.59635 0.596688 1.01192 1.78965 1.01192H6.79645C7.98941 1.01192 8.58589 1.59635 8.58589 2.7652V3.75933H11.0441V1.95182ZM3.86828 17.2976C3.27783 17.2976 2.85608 17.1771 2.60303 16.9361C2.34997 16.6951 2.22345 16.2794 2.22345 15.6889V12.0016C2.22345 11.4111 2.34997 11.0014 2.60303 10.7725C2.85608 10.5315 3.27783 10.411 3.86828 10.411H12.3094C12.8998 10.411 13.3155 10.5315 13.5565 10.7725C13.8096 11.0014 13.9361 11.4111 13.9361 12.0016V15.6889C13.9361 16.2794 13.8096 16.6951 13.5565 16.9361C13.3155 17.1771 12.8998 17.2976 12.3094 17.2976H3.86828ZM5.29622 12.58C5.17572 12.58 5.11547 12.6402 5.11547 12.7607V14.9478C5.11547 15.0683 5.17572 15.1286 5.29622 15.1286H10.8634C10.9839 15.1286 11.0441 15.0683 11.0441 14.9478V12.7607C11.0441 12.6402 10.9839 12.58 10.8634 12.58H5.29622ZM5.85655 3.50628C5.85655 3.33758 5.7722 3.25323 5.6035 3.25323H3.03683C2.86813 3.25323 2.78378 3.33758 2.78378 3.50628V6.52483C2.78378 6.69353 2.86813 6.77788 3.03683 6.77788H5.6035C5.7722 6.77788 5.85655 6.69353 5.85655 6.52483V3.50628ZM25.2685 2.1868C25.6782 2.1868 25.9975 2.27717 26.2265 2.45793C26.4675 2.62663 26.588 2.91583 26.588 3.32553C26.588 3.73523 26.4675 4.03046 26.2265 4.21121C25.9975 4.37991 25.6782 4.46426 25.2685 4.46426H23.3345V4.78962C23.3345 5.17522 23.4008 5.5066 23.5333 5.78375C23.6779 6.0609 23.8767 6.31395 24.1298 6.5429C24.3828 6.7598 24.6781 6.96466 25.0155 7.15746C25.3649 7.35026 25.7385 7.54908 26.1361 7.75394C26.5097 7.94674 26.7507 8.20581 26.8591 8.53117C26.9796 8.85652 26.9435 9.17584 26.7507 9.48915C26.5579 9.80245 26.2988 9.97115 25.9734 9.99525C25.6481 10.0073 25.3047 9.94705 24.9432 9.8145C24.3768 9.60965 23.8225 9.34455 23.2803 9.01919C22.7501 8.69384 22.3042 8.35644 21.9427 8.00699C21.5812 8.42874 21.1293 8.82639 20.5871 9.19994C20.0569 9.5735 19.5086 9.89885 18.9422 10.176C18.5807 10.3447 18.2373 10.417 17.9119 10.3929C17.5986 10.3568 17.3396 10.182 17.1347 9.86872C16.9299 9.55542 16.8877 9.2361 17.0082 8.91074C17.1287 8.58539 17.3757 8.32029 17.7493 8.11544C18.1469 7.89854 18.5144 7.67561 18.8518 7.44666C19.2013 7.20566 19.5026 6.95863 19.7556 6.70558C20.0087 6.44048 20.2015 6.15127 20.334 5.83797C20.4786 5.52467 20.5509 5.17522 20.5509 4.78962V4.46426H18.5084C18.0987 4.46426 17.7734 4.37991 17.5324 4.21121C17.3034 4.03046 17.1889 3.73523 17.1889 3.32553C17.1889 2.91583 17.3034 2.62663 17.5324 2.45793C17.7734 2.27717 18.0987 2.1868 18.5084 2.1868H20.5509V1.24689C20.5509 0.83719 20.6774 0.529913 20.9305 0.325062C21.1956 0.108161 21.533 -0.000289883 21.9427 -0.000289883C22.3524 -0.000289883 22.6838 0.108161 22.9368 0.325062C23.2019 0.529913 23.3345 0.83719 23.3345 1.24689V2.1868H25.2685ZM25.4312 10.7544C25.8891 10.7544 26.2385 10.8689 26.4795 11.0978C26.7326 11.3268 26.8591 11.6461 26.8591 12.0558V12.345C26.8591 12.6704 26.9977 12.9716 27.2749 13.2488C27.552 13.5139 27.8954 13.7549 28.3051 13.9718C28.7269 14.1887 29.1788 14.3875 29.6608 14.5683C30.1548 14.737 30.6127 14.8876 31.0345 15.0201C31.408 15.1406 31.6671 15.3455 31.8117 15.6347C31.9684 15.9359 31.9804 16.2613 31.8479 16.6107C31.7153 16.9602 31.4924 17.1771 31.1791 17.2614C30.8778 17.3458 30.5404 17.3398 30.1669 17.2434C29.2872 17.0265 28.4317 16.7252 27.6002 16.3396C26.7688 15.9661 26.0457 15.4901 25.4312 14.9117C24.8166 15.4901 24.0936 15.9841 23.2622 16.3938C22.4307 16.8035 21.5752 17.1168 20.6955 17.3337C20.322 17.4301 19.9785 17.4362 19.6652 17.3518C19.364 17.2675 19.1471 17.0506 19.0145 16.7011C18.882 16.3517 18.888 16.0263 19.0326 15.7251C19.1893 15.4359 19.4544 15.231 19.8279 15.1105C20.2497 14.978 20.7015 14.8213 21.1835 14.6406C21.6776 14.4598 22.1295 14.255 22.5392 14.026C22.9609 13.785 23.3104 13.5259 23.5875 13.2488C23.8647 12.9716 24.0033 12.6704 24.0033 12.345V12.0558C24.0033 11.6461 24.1238 11.3268 24.3648 11.0978C24.6178 10.8689 24.9733 10.7544 25.4312 10.7544ZM28.3955 1.95182C28.3955 1.53007 28.5281 1.20472 28.7932 0.975766C29.0703 0.746814 29.4198 0.632339 29.8415 0.632339C30.2633 0.632339 30.6067 0.746814 30.8718 0.975766C31.149 1.20472 31.2875 1.53007 31.2875 1.95182V10.0856C31.2875 10.5074 31.149 10.8327 30.8718 11.0617C30.6067 11.2906 30.2633 11.4051 29.8415 11.4051C29.4198 11.4051 29.0703 11.2906 28.7932 11.0617C28.5281 10.8327 28.3955 10.5074 28.3955 10.0856V1.95182Z" fill="#0F6DF3"/>
</svg>
