<svg width="49" height="51" viewBox="0 0 49 51" fill="none" xmlns="http://www.w3.org/2000/svg">
<path d="M21.6456 4.22498C21.9751 1.58309 24.3836 -0.291629 27.0255 0.0374821C29.6676 0.366867 31.5434 2.77621 31.214 5.41834L29.8077 16.6947L32.3409 6.97498C33.0124 4.39858 35.6454 2.85356 38.2218 3.52479C40.7983 4.19626 42.3425 6.8301 41.671 9.40662L35.5714 32.8099L40.4786 30.4789C43.4306 29.076 46.9614 30.3316 48.3644 33.2836C49.7672 36.2355 48.5115 39.7663 45.5597 41.1693L31.755 47.7299C31.5823 47.8119 31.4067 47.8826 31.2306 47.9467C29.2399 49.1378 27.016 49.9437 24.6769 50.2953C20.4748 50.9269 16.1814 50.0565 12.5753 47.8422C8.96931 45.6278 6.28895 42.2154 5.01965 38.224C4.77203 37.4453 4.58149 36.6547 4.44738 35.8578C4.37762 35.6678 4.31709 35.4714 4.27062 35.2689L0.123163 17.1967C-0.472339 14.6016 1.14916 12.0149 3.74426 11.4193C6.33931 10.8239 8.92606 12.4454 9.5216 15.0404L10.5177 19.3803V6.55701C10.5177 3.89447 12.6764 1.73572 15.339 1.73572C18.0015 1.73579 20.1602 3.89451 20.1603 6.55701V15.5971C20.1828 15.5948 20.2052 15.5914 20.2277 15.5892L21.6456 4.22498Z" fill="#0F6DF3"/>
</svg>
